<svg xmlns="http://www.w3.org/2000/svg" class="svg-fill" width="100" height="54" viewBox="0 0 100 54"><style>.a{fill:none;}</style><path d="M71.7 11.5c0.4-0.2 0.7-0.4 0.9-0.8 0.2-0.3 0.4-0.8 0.4-1.3s0.1-1.1 0.1-1.7 0-1.2-0.1-1.7c-0.1-0.5-0.2-0.9-0.5-1.3 -0.2-0.4-0.6-0.6-1-0.8 -0.4-0.2-1-0.3-1.7-0.3h-2v8.2h2.1C70.8 11.7 71.3 11.6 71.7 11.5z" class="a"/><path d="M65.3 32.4c-0.2-0.4-0.6-0.6-1-0.8 -0.4-0.2-1-0.3-1.7-0.3h-2v8.2h2.1c0.7 0 1.2-0.1 1.6-0.3 0.4-0.2 0.7-0.4 0.9-0.8 0.2-0.3 0.4-0.8 0.4-1.3 0.1-0.5 0.1-1.1 0.1-1.7 0-0.7 0-1.2-0.1-1.7C65.7 33.2 65.5 32.7 65.3 32.4z" class="a"/><path d="M47.7 31.3c-0.7 0-1.3 0.2-1.8 0.6 -0.5 0.4-0.8 1.1-0.8 2v13.8c0 0.9 0.3 1.6 0.8 2 0.5 0.4 1.1 0.6 1.8 0.6s1.3-0.2 1.8-0.6c0.5-0.4 0.8-1.1 0.8-2V34c0-0.9-0.3-1.6-0.8-2C48.9 31.5 48.3 31.3 47.7 31.3z" class="a"/><path d="M78.1 31.3h-1.7v19.1h1.7c1.1 0 1.8-0.3 2.2-0.8 0.4-0.5 0.7-1.4 0.7-2.5V34.6c0-1-0.2-1.8-0.6-2.4C80 31.6 79.2 31.3 78.1 31.3z" class="a"/><polygon points="33.9 44.8 33.8 44.8 30.8 27.8 27.9 27.8 24.9 44.4 24.9 44.4 23 27.8 19 27.8 22.9 54 26.5 54 29.3 37 29.4 37 32.2 54 35.8 54 39.7 27.8 35.7 27.8 "/><path d="M51.9 29.2c-0.6-0.5-1.3-0.9-2-1.2 -0.7-0.3-1.5-0.4-2.3-0.4s-1.5 0.1-2.3 0.4c-0.7 0.3-1.4 0.7-2 1.2 -0.6 0.5-1.1 1.2-1.5 2s-0.6 1.7-0.6 2.8v13.8c0 1.1 0.2 2 0.6 2.8 0.4 0.8 0.9 1.5 1.5 2 0.6 0.5 1.3 0.9 2 1.2 0.7 0.3 1.5 0.4 2.3 0.4s1.5-0.1 2.3-0.4c0.7-0.3 1.4-0.7 2-1.2 0.6-0.5 1.1-1.2 1.5-2 0.4-0.8 0.6-1.7 0.6-2.8V34c0-1.1-0.2-2-0.6-2.8C53 30.4 52.5 29.7 51.9 29.2zM50.2 47.8c0 0.9-0.3 1.6-0.8 2 -0.5 0.4-1.1 0.6-1.8 0.6s-1.3-0.2-1.8-0.6c-0.5-0.4-0.8-1.1-0.8-2V34c0-0.9 0.3-1.6 0.8-2 0.5-0.4 1.1-0.6 1.8-0.6s1.3 0.2 1.8 0.6c0.5 0.4 0.8 1.1 0.8 2V47.8z"/><path d="M68.9 39.4c0.5-1.1 0.7-2.4 0.7-3.9 0-5.1-2.2-7.7-6.6-7.7H57v26.2h3.8v-11.2h2.2l3.5 11.2h4l-4-12C67.6 41.4 68.4 40.5 68.9 39.4zM65.8 37.2c-0.1 0.5-0.2 0.9-0.4 1.3 -0.2 0.3-0.5 0.6-0.9 0.8 -0.4 0.2-0.9 0.3-1.6 0.3h-2.1v-8.2h2c0.7 0 1.2 0.1 1.7 0.3 0.4 0.2 0.7 0.4 1 0.8 0.2 0.4 0.4 0.8 0.5 1.3 0.1 0.5 0.1 1.1 0.1 1.7C65.9 36.1 65.8 36.7 65.8 37.2z"/><path d="M78.2 27.8H72.7v26.2h5.2c2.2 0 3.9-0.6 5.1-1.7 1.2-1.2 1.8-3 1.8-5.4V34.6c0-2.1-0.6-3.8-1.7-5C82 28.4 80.3 27.8 78.2 27.8zM81 47.2c0 1.1-0.2 2-0.7 2.5 -0.4 0.5-1.2 0.8-2.2 0.8h-1.7V31.3h1.7c1.1 0 1.9 0.3 2.3 0.8 0.4 0.6 0.6 1.4 0.6 2.4V47.2z"/><path d="M99.9 35.3v-1.8c0-0.7-0.1-1.5-0.4-2.2 -0.3-0.7-0.7-1.3-1.3-1.9 -0.6-0.6-1.2-1-2-1.4 -0.8-0.3-1.6-0.5-2.6-0.5 -1.1 0-2 0.2-2.8 0.6 -0.8 0.4-1.5 0.9-2 1.5 -0.5 0.6-0.9 1.4-1.2 2.3 -0.3 0.9-0.4 1.8-0.4 2.8 0 1.6 0.3 3 0.8 4.1 0.6 1.1 1.6 2 3.3 2.6l2.7 1.1c0.5 0.2 0.8 0.4 1.1 0.6 0.3 0.2 0.5 0.4 0.7 0.7 0.2 0.3 0.3 0.6 0.3 1.1 0 0.4 0.1 1 0.1 1.7 0 0.6 0 1.1-0.1 1.6 0 0.5-0.2 0.9-0.3 1.2 -0.2 0.3-0.5 0.6-0.8 0.8 -0.4 0.2-0.9 0.3-1.5 0.3 -1 0-1.6-0.3-2-0.8 -0.4-0.6-0.6-1.2-0.6-1.9V46.6H87v1.4c0 0.9 0.2 1.7 0.5 2.5 0.3 0.8 0.8 1.4 1.3 2s1.2 1 2 1.3 1.6 0.5 2.5 0.5c1.2 0 2.2-0.2 3.1-0.6 0.8-0.4 1.5-0.9 2-1.6 0.5-0.7 0.9-1.5 1.1-2.4s0.3-2 0.3-3.1c0-1 0-1.8-0.1-2.6 -0.1-0.7-0.3-1.4-0.6-2 -0.3-0.6-0.7-1.1-1.2-1.5s-1.2-0.8-2-1.1l-2.9-1.1c-0.5-0.2-0.9-0.4-1.2-0.6 -0.3-0.2-0.5-0.4-0.6-0.7s-0.2-0.6-0.3-0.9 -0.1-0.8-0.1-1.3c0-0.4 0-0.9 0.1-1.3 0.1-0.4 0.2-0.8 0.4-1.1 0.2-0.3 0.4-0.6 0.8-0.8 0.3-0.2 0.8-0.3 1.3-0.3 1 0 1.6 0.3 2 0.9 0.4 0.6 0.6 1.4 0.6 2.2v0.8H99.9z"/><path d="M23 26.3l1.8-17h0.1l3.1 17h2.9l2.9-16.6h0.1l1.9 16.6h4L35.7 0.1h-3.5l-2.8 17h-0.1L26.4 0.1H22.9l-3.3 22.4c-3.7 0-6.8-2.8-7.2-6.5 2 1.7 4.5 2.7 7.3 2.7v-3.8c-3.7 0-6.8-2.8-7.3-6.5 2 1.7 4.5 2.7 7.3 2.7V7.3c-4 0-7.3-3.3-7.3-7.3H7.3c0 4-3.3 7.3-7.3 7.3v3.8c2.8 0 5.3-1 7.3-2.7C6.8 12 3.7 14.9 0 14.9v3.8c2.8 0 5.3-1 7.3-2.7C6.8 19.6 3.7 22.5 0 22.5v3.8c3.1 0 5.9-1.3 7.9-3.3v31h3.8V23c1.9 1.9 4.5 3.1 7.3 3.3l0 0 0.4 0"/><path d="M42.8 24.7c0.6 0.6 1.2 1 1.9 1.3 0.7 0.3 1.5 0.5 2.4 0.5 0.8 0 1.6-0.2 2.4-0.5s1.4-0.8 1.9-1.3c0.6-0.6 1-1.2 1.3-1.9 0.3-0.7 0.5-1.5 0.5-2.4V0h-3.8v20c0 0.9-0.2 1.6-0.7 2.1 -0.4 0.4-1 0.7-1.7 0.7s-1.2-0.2-1.7-0.7 -0.7-1.1-0.7-2.1V0h-3.8v20.3c0 0.9 0.2 1.7 0.5 2.4C41.8 23.5 42.3 24.1 42.8 24.7z"/><rect x="56.8" width="3.8" height="26.2"/><path d="M68 15h2.2l3.5 11.2h4l-4-12c1.2-0.7 2-1.5 2.5-2.6 0.5-1.1 0.7-2.4 0.7-3.9 0-5.1-2.2-7.7-6.6-7.7h-6v26.2h3.8V15zM68 3.6h2c0.7 0 1.2 0.1 1.7 0.3 0.4 0.2 0.7 0.4 1 0.8 0.2 0.4 0.4 0.8 0.5 1.3 0.1 0.5 0.1 1.1 0.1 1.7s0 1.2-0.1 1.7 -0.2 0.9-0.4 1.3c-0.2 0.3-0.5 0.6-0.9 0.8s-0.9 0.3-1.6 0.3h-2.1V3.6z"/></svg>
